<?xml version="1.0" standalone="no"?>
<!DOCTYPE svg PUBLIC "-//W3C//DTD SVG 20010904//EN"
 "http://www.w3.org/TR/2001/REC-SVG-20010904/DTD/svg10.dtd">
<svg version="1.0" xmlns="http://www.w3.org/2000/svg"
 width="250.000000pt" height="50.000000pt" viewBox="0 0 250.000000 50.000000"
 preserveAspectRatio="xMidYMid meet">
<metadata>
Created by potrace 1.10, written by Peter Selinger 2001-2011
</metadata>
<g transform="translate(0.000000,50.000000) scale(0.100000,-0.100000)"
fill="#000000" stroke="none">
<path d="M960 250 c0 -242 1 -250 20 -250 19 0 20 8 20 250 0 243 -1 250 -20
250 -19 0 -20 -7 -20 -250z"/>
<path d="M1498 353 c-2 -82 -2 -194 0 -250 2 -94 4 -103 22 -103 18 0 19 11
19 250 1 240 0 250 -19 250 -18 0 -19 -10 -22 -147z"/>
<path d="M1205 325 c-35 -28 -26 -33 16 -8 28 16 31 16 60 -1 17 -10 33 -16
36 -13 6 7 -56 47 -72 47 -5 0 -23 -11 -40 -25z"/>
<path d="M1211 278 c-1 -26 2 -28 39 -28 37 0 40 2 39 28 -2 23 -2 24 -6 5 -3
-18 -11 -23 -33 -23 -22 0 -30 5 -33 23 -4 19 -4 18 -6 -5z"/>
<path d="M1170 242 c0 -5 -32 -9 -70 -8 -50 1 -70 -3 -70 -11 0 -7 -6 -13 -12
-13 -9 0 -8 -3 2 -9 8 -6 19 -7 25 -3 15 10 35 11 35 3 0 -12 54 0 62 13 5 6
8 0 9 -14 l1 -25 8 25 c4 14 8 19 9 13 1 -9 20 -13 60 -13 38 0 61 4 64 13 4
8 6 7 6 -3 1 -15 18 -16 164 -11 10 1 15 6 12 11 -3 6 0 10 7 10 11 0 11 2 0
9 -19 11 -63 5 -73 -11 -5 -7 -9 -8 -9 -2 0 5 5 15 10 20 7 7 6 11 -5 11 -8 0
-15 -4 -15 -9 0 -4 -7 -8 -15 -8 -8 0 -15 6 -15 13 0 8 -3 8 -8 2 -8 -13 -151
-14 -169 -2 -7 5 -13 4 -13 -1z"/>
</g>
</svg>
