<?xml version="1.0" encoding="UTF-8"?>
<svg xmlns="http://www.w3.org/2000/svg" xmlns:xlink="http://www.w3.org/1999/xlink" width="254px" height="54px" viewBox="0 0 254 54" version="1.1">
<g id="surface1">
<path style=" stroke:none;fill-rule:nonzero;fill:rgb(14.901961%,27.058824%,91.372549%);fill-opacity:1;" d="M 110.296875 6.039062 C 93.59375 12.222656 92.445312 12.71875 94.101562 13.640625 C 95.378906 14.351562 96.90625 13.925781 114.503906 7.601562 L 126.109375 3.480469 L 141.027344 8.882812 C 156.328125 14.28125 157.476562 14.636719 158.621094 13.640625 C 159.515625 12.789062 158.113281 11.9375 151.738281 9.664062 C 148.550781 8.527344 141.917969 6.039062 136.816406 4.121094 C 131.84375 2.273438 127 0.710938 125.980469 0.78125 C 125.085938 0.78125 118.074219 3.125 110.296875 6.039062 Z M 110.296875 6.039062 "/>
<path style=" stroke:none;fill-rule:nonzero;fill:rgb(14.901961%,27.058824%,91.372549%);fill-opacity:1;" d="M 102.644531 6.394531 C 102.261719 6.820312 102.773438 6.890625 103.792969 6.679688 C 106.089844 6.179688 106.472656 5.683594 104.6875 5.683594 C 103.921875 5.683594 103.027344 5.96875 102.644531 6.394531 Z M 102.644531 6.394531 "/>
<path style=" stroke:none;fill-rule:nonzero;fill:rgb(14.901961%,27.058824%,91.372549%);fill-opacity:1;" d="M 106.34375 15.132812 C 105.960938 15.703125 105.832031 18.972656 106.089844 22.453125 L 106.472656 28.777344 L 146 28.777344 L 146 21.671875 C 146 15.84375 145.617188 14.566406 144.085938 14.566406 C 142.554688 14.566406 142.046875 15.773438 141.792969 20.25 L 141.410156 25.933594 L 126.871094 25.722656 C 117.691406 25.578125 112.207031 25.792969 112.207031 26.21875 C 112.207031 26.574219 114.503906 27.070312 117.308594 27.214844 L 122.410156 27.496094 L 117.054688 27.425781 L 111.570312 27.355469 L 111.1875 20.746094 C 110.933594 15.488281 110.421875 14.210938 108.894531 14.210938 C 107.875 14.210938 106.726562 14.636719 106.34375 15.132812 Z M 109.277344 27.496094 C 108.894531 28.207031 108.636719 27.78125 108.636719 26.644531 C 108.636719 25.4375 108.894531 24.941406 109.277344 25.367188 C 109.53125 25.863281 109.53125 26.859375 109.277344 27.496094 Z M 143.320312 27.285156 C 142.9375 27.921875 142.046875 28.207031 141.410156 27.996094 C 140.769531 27.78125 141.027344 27.214844 141.917969 26.644531 C 143.832031 25.507812 144.339844 25.722656 143.320312 27.285156 Z M 131.082031 27.496094 C 129.804688 27.640625 127.511719 27.640625 125.980469 27.496094 C 124.324219 27.355469 125.34375 27.214844 128.148438 27.214844 C 130.953125 27.140625 132.226562 27.285156 131.082031 27.496094 Z M 138.984375 27.710938 C 138.984375 28.066406 138.730469 28.421875 138.476562 28.421875 C 138.09375 28.421875 137.457031 28.066406 137.074219 27.710938 C 136.691406 27.285156 136.945312 27 137.582031 27 C 138.347656 27 138.984375 27.285156 138.984375 27.710938 Z M 138.984375 27.710938 "/>
<path style=" stroke:none;fill-rule:nonzero;fill:rgb(14.901961%,27.058824%,91.372549%);fill-opacity:1;" d="M 135.289062 16.058594 C 135.289062 16.839844 135.671875 17.050781 136.054688 16.484375 C 136.4375 15.988281 136.308594 15.347656 135.925781 15.132812 C 135.542969 14.851562 135.160156 15.277344 135.289062 16.058594 Z M 135.289062 16.058594 "/>
<path style=" stroke:none;fill-rule:nonzero;fill:rgb(14.901961%,27.058824%,91.372549%);fill-opacity:1;" d="M 158.75 15.632812 C 158.367188 16.058594 158.878906 16.128906 159.898438 15.914062 C 162.191406 15.417969 162.574219 14.921875 160.789062 14.921875 C 160.023438 14.921875 159.132812 15.207031 158.75 15.632812 Z M 158.75 15.632812 "/>
<path style=" stroke:none;fill-rule:nonzero;fill:rgb(14.901961%,27.058824%,91.372549%);fill-opacity:1;" d="M 20.527344 29.414062 C 19.382812 30.199219 19.382812 30.550781 20.527344 30.980469 C 21.421875 31.261719 21.675781 31.191406 21.167969 30.695312 C 20.785156 30.269531 21.421875 29.628906 22.570312 29.203125 C 23.84375 28.777344 24.226562 28.421875 23.460938 28.421875 C 22.695312 28.421875 21.292969 28.847656 20.527344 29.414062 Z M 20.527344 29.414062 "/>
<path style=" stroke:none;fill-rule:nonzero;fill:rgb(14.901961%,27.058824%,91.372549%);fill-opacity:1;" d="M 31.496094 29.203125 C 32.386719 29.699219 33.40625 29.914062 33.789062 29.699219 C 34.171875 29.488281 33.535156 29.058594 32.261719 28.847656 C 30.476562 28.421875 30.347656 28.492188 31.496094 29.203125 Z M 31.496094 29.203125 "/>
<path style=" stroke:none;fill-rule:nonzero;fill:rgb(14.901961%,27.058824%,91.372549%);fill-opacity:1;" d="M 14.664062 29.84375 C 15.046875 30.199219 15.683594 30.550781 16.066406 30.550781 C 16.320312 30.550781 16.578125 30.199219 16.578125 29.84375 C 16.578125 29.414062 15.9375 29.132812 15.171875 29.132812 C 14.535156 29.132812 14.28125 29.414062 14.664062 29.84375 Z M 14.664062 29.84375 "/>
<path style=" stroke:none;fill-rule:nonzero;fill:rgb(14.901961%,27.058824%,91.372549%);fill-opacity:1;" d="M 38.253906 29.84375 C 37.105469 30.269531 36.976562 30.550781 37.871094 30.550781 C 38.636719 30.550781 39.78125 30.199219 40.164062 29.84375 C 41.1875 28.988281 40.675781 28.988281 38.253906 29.84375 Z M 38.253906 29.84375 "/>
<path style=" stroke:none;fill-rule:nonzero;fill:rgb(14.901961%,27.058824%,91.372549%);fill-opacity:1;" d="M 60.824219 29.914062 C 61.714844 30.410156 62.734375 30.625 63.117188 30.410156 C 63.5 30.199219 62.863281 29.769531 61.585938 29.558594 C 59.800781 29.132812 59.675781 29.203125 60.824219 29.914062 Z M 60.824219 29.914062 "/>
<path style=" stroke:none;fill-rule:nonzero;fill:rgb(14.901961%,27.058824%,91.372549%);fill-opacity:1;" d="M 208.480469 29.84375 C 207.457031 30.835938 208.863281 31.972656 211.15625 31.972656 C 212.175781 31.972656 212.941406 31.335938 212.941406 30.550781 C 212.941406 29.058594 209.882812 28.5625 208.480469 29.84375 Z M 208.480469 29.84375 "/>
<path style=" stroke:none;fill-rule:nonzero;fill:rgb(14.901961%,27.058824%,91.372549%);fill-opacity:1;" d="M 222.886719 29.628906 C 223.78125 29.84375 224.925781 29.769531 225.308594 29.558594 C 225.820312 29.34375 225.054688 29.132812 223.652344 29.203125 C 222.25 29.203125 221.867188 29.414062 222.886719 29.628906 Z M 222.886719 29.628906 "/>
<path style=" stroke:none;fill-rule:nonzero;fill:rgb(14.901961%,27.058824%,91.372549%);fill-opacity:1;" d="M 43.097656 30.339844 C 43.992188 30.550781 45.136719 30.480469 45.519531 30.269531 C 46.03125 30.054688 45.265625 29.84375 43.863281 29.914062 C 42.460938 29.914062 42.078125 30.125 43.097656 30.339844 Z M 43.097656 30.339844 "/>
<path style=" stroke:none;fill-rule:nonzero;fill:rgb(14.901961%,27.058824%,91.372549%);fill-opacity:1;" d="M 87.472656 37.089844 C 87.726562 45.472656 90.148438 47.675781 90.789062 40.074219 C 91.042969 37.019531 91.808594 35.171875 92.828125 34.957031 C 93.976562 34.746094 94.359375 36.023438 94.359375 39.71875 C 94.359375 43.769531 94.738281 44.761719 96.269531 44.761719 C 97.925781 44.761719 98.183594 43.839844 97.925781 39.222656 L 97.546875 33.75 L 93.976562 33.75 C 90.660156 33.820312 90.40625 33.609375 90.789062 31.832031 C 91.167969 30.339844 90.789062 29.84375 89.257812 29.84375 C 87.597656 29.84375 87.34375 30.835938 87.472656 37.089844 Z M 87.472656 37.089844 "/>
<path style=" stroke:none;fill-rule:nonzero;fill:rgb(14.901961%,27.058824%,91.372549%);fill-opacity:1;" d="M 147.527344 30.765625 C 147.148438 31.261719 147.910156 31.691406 149.3125 31.691406 C 150.972656 31.691406 151.226562 31.476562 150.207031 30.765625 C 149.441406 30.269531 148.675781 29.84375 148.550781 29.84375 C 148.292969 29.84375 147.910156 30.269531 147.527344 30.765625 Z M 147.527344 30.765625 "/>
<path style=" stroke:none;fill-rule:nonzero;fill:rgb(14.901961%,27.058824%,91.372549%);fill-opacity:1;" d="M 161.9375 30.480469 C 161.9375 30.90625 162.449219 31.40625 163.210938 31.617188 C 163.976562 31.832031 164.105469 31.546875 163.722656 30.980469 C 162.832031 29.699219 161.9375 29.488281 161.9375 30.480469 Z M 161.9375 30.480469 "/>
<path style=" stroke:none;fill-rule:nonzero;fill:rgb(14.901961%,27.058824%,91.372549%);fill-opacity:1;" d="M 177.238281 37.375 C 177.238281 42.277344 177.75 44.761719 178.640625 44.621094 C 180.683594 44.265625 180.9375 29.84375 178.898438 29.84375 C 177.621094 29.84375 177.238281 31.832031 177.238281 37.375 Z M 177.238281 37.375 "/>
<path style=" stroke:none;fill-rule:nonzero;fill:rgb(14.901961%,27.058824%,91.372549%);fill-opacity:1;" d="M 201.210938 30.269531 C 200.574219 30.550781 200.191406 31.40625 200.191406 32.117188 C 200.191406 32.828125 199.679688 33.394531 199.171875 33.394531 C 197.511719 33.394531 199.042969 42.914062 200.828125 43.980469 C 202.613281 45.046875 206.566406 44.621094 206.566406 43.34375 C 206.566406 42.988281 205.671875 42.632812 204.652344 42.632812 C 203.125 42.632812 202.742188 41.707031 202.742188 38.722656 C 202.742188 35.738281 203.125 34.816406 204.652344 34.816406 C 205.671875 34.816406 206.566406 34.460938 206.566406 34.105469 C 206.566406 33.679688 205.800781 33.394531 204.78125 33.394531 C 203.761719 33.394531 202.742188 32.542969 202.484375 31.546875 C 202.230469 30.550781 201.722656 29.984375 201.210938 30.269531 Z M 201.210938 30.269531 "/>
<path style=" stroke:none;fill-rule:nonzero;fill:rgb(14.901961%,27.058824%,91.372549%);fill-opacity:1;" d="M 216.511719 30.339844 C 217.40625 30.550781 218.550781 30.480469 218.933594 30.269531 C 219.445312 30.054688 218.679688 29.84375 217.277344 29.914062 C 215.875 29.914062 215.492188 30.125 216.511719 30.339844 Z M 216.511719 30.339844 "/>
<path style=" stroke:none;fill-rule:nonzero;fill:rgb(14.901961%,27.058824%,91.372549%);fill-opacity:1;" d="M 75.230469 31.546875 C 75.230469 31.691406 76.125 32.042969 77.269531 32.257812 C 78.292969 32.472656 78.800781 32.398438 78.417969 31.972656 C 77.652344 31.261719 75.230469 30.980469 75.230469 31.546875 Z M 75.230469 31.546875 "/>
<path style=" stroke:none;fill-rule:nonzero;fill:rgb(14.901961%,27.058824%,91.372549%);fill-opacity:1;" d="M 2.167969 33.820312 C 0.253906 34.886719 1.402344 37.65625 4.589844 39.71875 C 6.375 40.925781 7.523438 42.207031 7.011719 42.632812 C 5.738281 43.769531 4.207031 43.484375 3.441406 41.851562 C 3.058594 40.996094 2.167969 40.570312 1.53125 40.785156 C -0.511719 41.421875 1.273438 43.980469 4.082031 44.40625 C 6.886719 44.976562 10.199219 43.699219 10.199219 42.0625 C 10.199219 41.496094 8.796875 39.929688 7.011719 38.652344 C 5.226562 37.375 3.824219 36.023438 3.824219 35.597656 C 3.824219 34.460938 5.992188 34.671875 6.886719 35.882812 C 8.03125 37.515625 10.457031 37.160156 9.945312 35.3125 C 9.691406 34.246094 8.542969 33.679688 6.375 33.535156 C 4.589844 33.394531 2.675781 33.535156 2.167969 33.820312 Z M 2.167969 33.820312 "/>
<path style=" stroke:none;fill-rule:nonzero;fill:rgb(14.901961%,27.058824%,91.372549%);fill-opacity:1;" d="M 13.644531 33.820312 C 12.242188 34.601562 12.625 36.949219 14.027344 36.949219 C 14.792969 36.949219 15.300781 36.449219 15.300781 35.882812 C 15.300781 35.3125 16.195312 34.816406 17.214844 34.816406 C 20.273438 34.816406 19.507812 36.949219 15.8125 38.511719 C 13.386719 39.648438 12.75 40.5 13.007812 42.207031 C 13.386719 44.265625 13.769531 44.40625 18.234375 44.480469 L 23.078125 44.550781 L 22.695312 39.148438 L 22.3125 33.75 L 18.488281 33.535156 C 16.320312 33.394531 14.152344 33.535156 13.644531 33.820312 Z M 19.125 41.210938 C 19.125 42.773438 18.617188 43.199219 17.214844 42.914062 C 14.917969 42.417969 14.792969 41.070312 16.832031 39.929688 C 19 38.722656 19.125 38.792969 19.125 41.210938 Z M 19.125 41.210938 "/>
<path style=" stroke:none;fill-rule:nonzero;fill:rgb(14.901961%,27.058824%,91.372549%);fill-opacity:1;" d="M 27.160156 39.078125 C 28.5625 42.277344 30.347656 44.761719 31.113281 44.761719 C 32.003906 44.761719 33.40625 42.84375 34.171875 40.144531 C 35.066406 37.65625 36.085938 35.101562 36.46875 34.460938 C 36.976562 33.820312 36.46875 33.394531 35.320312 33.394531 C 33.917969 33.394531 33.023438 34.53125 32.386719 37.445312 C 31.621094 40.785156 31.238281 41.210938 30.476562 39.789062 C 29.964844 38.792969 29.582031 36.949219 29.453125 35.667969 C 29.328125 33.964844 28.691406 33.394531 27.03125 33.394531 C 24.738281 33.394531 24.738281 33.609375 27.160156 39.078125 Z M 27.160156 39.078125 "/>
<path style=" stroke:none;fill-rule:nonzero;fill:rgb(14.901961%,27.058824%,91.372549%);fill-opacity:1;" d="M 39.402344 35.3125 C 37.742188 37.800781 38.761719 42.488281 41.1875 43.839844 C 43.480469 45.117188 47.816406 44.550781 48.964844 42.84375 C 50.238281 40.996094 47.5625 40.144531 45.902344 41.851562 C 44.117188 43.699219 42.078125 43.128906 42.078125 40.785156 C 42.078125 39.363281 42.714844 39.078125 45.902344 39.078125 C 48.964844 39.078125 49.730469 38.792969 49.730469 37.585938 C 49.730469 33.394531 41.949219 31.691406 39.402344 35.3125 Z M 45.902344 36.238281 C 45.902344 37.019531 45.011719 37.65625 43.992188 37.65625 C 42.972656 37.65625 42.078125 37.019531 42.078125 36.238281 C 42.078125 35.457031 42.972656 34.816406 43.992188 34.816406 C 45.011719 34.816406 45.902344 35.457031 45.902344 36.238281 Z M 45.902344 36.238281 "/>
<path style=" stroke:none;fill-rule:nonzero;fill:rgb(14.901961%,27.058824%,91.372549%);fill-opacity:1;" d="M 52.277344 39.078125 C 52.277344 43.484375 52.660156 44.550781 54.191406 44.550781 C 55.722656 44.550781 56.105469 43.484375 56.105469 39.648438 C 56.105469 35.808594 56.488281 34.816406 58.015625 34.816406 C 59.546875 34.816406 59.929688 35.808594 59.929688 39.789062 C 59.929688 43.769531 60.3125 44.761719 61.84375 44.761719 C 63.371094 44.761719 63.753906 43.769531 63.753906 39.789062 C 63.753906 36.09375 64.136719 34.816406 65.539062 34.816406 C 66.816406 34.816406 67.199219 36.023438 66.941406 39.789062 C 66.6875 43.625 67.070312 44.761719 68.472656 44.761719 C 69.875 44.761719 70.128906 43.625 69.875 39.222656 L 69.492188 33.75 L 60.949219 33.679688 L 52.277344 33.679688 Z M 52.277344 39.078125 "/>
<path style=" stroke:none;fill-rule:nonzero;fill:rgb(14.901961%,27.058824%,91.372549%);fill-opacity:1;" d="M 75.484375 39.222656 L 78.035156 45.046875 L 75.101562 46.183594 C 73.316406 46.964844 72.808594 47.605469 73.699219 47.890625 C 75.484375 48.527344 80.332031 47.109375 80.457031 45.972656 C 80.457031 45.472656 81.480469 42.488281 82.753906 39.222656 C 84.792969 33.890625 84.921875 33.324219 83.007812 33.535156 C 81.480469 33.679688 80.839844 34.886719 80.332031 38.011719 C 79.566406 42.488281 79.4375 42.347656 77.015625 35.527344 C 76.632812 34.320312 75.613281 33.394531 74.722656 33.394531 C 73.445312 33.394531 73.574219 34.746094 75.484375 39.222656 Z M 75.484375 39.222656 "/>
<path style=" stroke:none;fill-rule:nonzero;fill:rgb(14.901961%,27.058824%,91.372549%);fill-opacity:1;" d="M 102.902344 33.890625 C 101.371094 34.671875 101.878906 42.988281 103.539062 43.910156 C 105.832031 45.191406 109.402344 44.90625 110.933594 43.414062 C 112.335938 41.921875 112.71875 36.308594 111.445312 34.53125 C 110.679688 33.394531 104.558594 32.96875 102.902344 33.890625 Z M 108.511719 36.023438 C 109.148438 40.714844 108.128906 44.195312 106.34375 43.199219 C 105.449219 42.632812 104.8125 35.667969 105.578125 35.171875 C 106.980469 34.460938 108.382812 34.886719 108.511719 36.023438 Z M 108.511719 36.023438 "/>
<path style=" stroke:none;fill-rule:nonzero;fill:rgb(14.901961%,27.058824%,91.372549%);fill-opacity:1;" d="M 115.777344 39.148438 C 116.160156 43.414062 116.671875 44.761719 118.074219 44.761719 C 119.476562 44.761719 119.859375 43.625 119.859375 39.71875 C 119.859375 36.023438 120.242188 34.746094 121.515625 35.027344 C 122.539062 35.171875 123.046875 36.804688 123.046875 39.789062 C 123.046875 42.773438 123.558594 44.40625 124.703125 44.550781 C 125.851562 44.835938 126.234375 43.554688 126.234375 39.859375 C 126.234375 35.882812 126.617188 34.816406 128.148438 34.816406 C 129.675781 34.816406 130.058594 35.808594 130.058594 39.789062 C 130.058594 43.769531 130.441406 44.761719 131.972656 44.761719 C 133.628906 44.761719 133.886719 43.839844 133.628906 39.222656 L 133.246094 33.75 L 124.324219 33.679688 L 115.398438 33.535156 Z M 115.777344 39.148438 "/>
<path style=" stroke:none;fill-rule:nonzero;fill:rgb(14.901961%,27.058824%,91.372549%);fill-opacity:1;" d="M 139.367188 33.820312 C 136.945312 34.390625 137.199219 42.914062 139.625 44.050781 C 141.792969 45.046875 146.125 44.40625 147.148438 42.84375 C 148.292969 41.210938 146.636719 40.640625 144.851562 42.0625 C 142.9375 43.484375 140.261719 42.488281 140.261719 40.359375 C 140.261719 39.433594 141.28125 39.078125 144.214844 39.078125 C 147.910156 39.078125 148.039062 38.9375 147.65625 36.378906 C 147.273438 34.175781 146.765625 33.75 144.085938 33.609375 C 142.300781 33.535156 140.132812 33.679688 139.367188 33.820312 Z M 144.597656 35.953125 C 145.742188 37.585938 145.617188 37.65625 142.8125 37.65625 C 140.386719 37.65625 139.367188 36.238281 141.152344 35.3125 C 142.554688 34.53125 143.703125 34.746094 144.597656 35.953125 Z M 144.597656 35.953125 "/>
<path style=" stroke:none;fill-rule:nonzero;fill:rgb(14.901961%,27.058824%,91.372549%);fill-opacity:1;" d="M 151.355469 33.820312 C 149.570312 34.816406 150.589844 37.160156 153.648438 39.222656 C 157.09375 41.496094 157.476562 42.277344 155.433594 42.988281 C 154.667969 43.269531 153.777344 42.84375 153.394531 41.992188 C 152.503906 39.929688 150.460938 40.074219 150.460938 42.207031 C 150.460938 44.050781 153.394531 45.046875 156.964844 44.40625 C 160.40625 43.769531 160.023438 40.785156 156.199219 38.226562 C 152.503906 35.808594 152.121094 34.816406 154.925781 34.816406 C 155.945312 34.816406 156.835938 35.3125 156.835938 35.882812 C 156.835938 36.449219 157.476562 36.949219 158.238281 36.949219 C 159.003906 36.949219 159.386719 36.238281 159.132812 35.3125 C 158.878906 34.246094 157.730469 33.679688 155.5625 33.535156 C 153.777344 33.394531 151.863281 33.535156 151.355469 33.820312 Z M 151.355469 33.820312 "/>
<path style=" stroke:none;fill-rule:nonzero;fill:rgb(14.901961%,27.058824%,91.372549%);fill-opacity:1;" d="M 163.339844 34.957031 C 162.832031 35.882812 162.574219 38.011719 162.703125 39.648438 C 163.210938 44.335938 167.039062 46.113281 171.375 43.625 C 173.796875 42.277344 174.179688 35.527344 171.882812 34.246094 C 169.332031 32.828125 164.488281 33.253906 163.339844 34.957031 Z M 169.332031 38.722656 C 168.824219 43.769531 166.527344 43.769531 166.019531 38.722656 C 165.761719 35.527344 166.019531 34.816406 167.675781 34.816406 C 169.332031 34.816406 169.589844 35.527344 169.332031 38.722656 Z M 169.332031 38.722656 "/>
<path style=" stroke:none;fill-rule:nonzero;fill:rgb(14.901961%,27.058824%,91.372549%);fill-opacity:1;" d="M 184.507812 38.296875 C 184.507812 41.070312 185.015625 43.554688 185.398438 43.910156 C 185.78125 44.335938 188.203125 44.621094 190.628906 44.550781 L 195.089844 44.480469 L 195.089844 38.9375 C 195.089844 34.460938 194.707031 33.394531 193.175781 33.394531 C 191.648438 33.394531 191.265625 34.390625 191.265625 38.011719 C 191.265625 41.777344 190.882812 42.632812 189.226562 42.632812 C 187.566406 42.632812 187.3125 41.851562 187.695312 38.011719 C 187.949219 34.246094 187.695312 33.394531 186.164062 33.394531 C 184.632812 33.394531 184.253906 34.390625 184.507812 38.296875 Z M 184.507812 38.296875 "/>
<path style=" stroke:none;fill-rule:nonzero;fill:rgb(14.901961%,27.058824%,91.372549%);fill-opacity:1;" d="M 209.117188 39.148438 C 209.117188 46.679688 211.792969 46.46875 212.050781 38.867188 C 212.304688 34.886719 211.921875 33.394531 210.773438 33.394531 C 209.625 33.394531 209.117188 35.027344 209.117188 39.148438 Z M 209.117188 39.148438 "/>
<path style=" stroke:none;fill-rule:nonzero;fill:rgb(14.901961%,27.058824%,91.372549%);fill-opacity:1;" d="M 216.765625 34.746094 C 213.578125 38.085938 216.640625 44.761719 221.230469 44.761719 C 225.820312 44.761719 228.496094 39.222656 225.691406 35.242188 C 224.164062 32.96875 218.808594 32.683594 216.765625 34.746094 Z M 222.886719 38.722656 C 222.378906 43.769531 220.082031 43.769531 219.574219 38.722656 C 219.316406 35.527344 219.574219 34.816406 221.230469 34.816406 C 222.886719 34.816406 223.140625 35.527344 222.886719 38.722656 Z M 222.886719 38.722656 "/>
<path style=" stroke:none;fill-rule:nonzero;fill:rgb(14.901961%,27.058824%,91.372549%);fill-opacity:1;" d="M 229.519531 39.148438 C 229.519531 43.554688 229.902344 44.761719 231.429688 44.761719 C 232.832031 44.761719 233.34375 43.625 233.597656 40.003906 C 233.851562 37.019531 234.617188 35.171875 235.636719 34.957031 C 236.785156 34.746094 237.167969 36.164062 237.296875 40.285156 C 237.296875 43.34375 237.679688 45.402344 238.0625 44.90625 C 238.316406 44.480469 239.207031 44.265625 239.847656 44.480469 C 240.613281 44.691406 240.992188 42.773438 240.738281 39.292969 L 240.355469 33.75 L 235 33.609375 L 229.519531 33.464844 Z M 229.519531 39.148438 "/>
<path style=" stroke:none;fill-rule:nonzero;fill:rgb(14.901961%,27.058824%,91.372549%);fill-opacity:1;" d="M 244.945312 34.390625 C 243.160156 35.597656 244.308594 37.445312 248.390625 40.003906 C 250.8125 41.421875 251.324219 42.132812 250.300781 42.703125 C 249.28125 43.269531 248.515625 43.058594 247.496094 41.992188 C 245.585938 40.074219 243.289062 40.074219 243.800781 41.992188 C 244.308594 44.125 248.007812 45.332031 250.941406 44.335938 C 254.253906 43.128906 254.128906 41.777344 250.558594 38.792969 C 247.113281 35.953125 246.476562 34.53125 249.027344 35.027344 C 249.792969 35.171875 250.429688 35.738281 250.300781 36.164062 C 250.046875 36.59375 250.8125 36.949219 251.832031 36.949219 C 253.871094 36.949219 254.253906 36.308594 252.980469 34.53125 C 251.960938 33.109375 246.988281 33.039062 244.945312 34.390625 Z M 244.945312 34.390625 "/>
<path style=" stroke:none;fill-rule:nonzero;fill:rgb(14.901961%,27.058824%,91.372549%);fill-opacity:1;" d="M 102.519531 48.246094 C 102.261719 48.386719 102.007812 48.957031 102.007812 49.523438 C 102.007812 50.304688 106.472656 50.449219 125.597656 50.449219 C 138.601562 50.375 149.441406 50.09375 149.695312 49.808594 C 151.355469 48.316406 146.636719 47.960938 125.851562 47.960938 C 113.355469 47.960938 102.773438 48.101562 102.519531 48.246094 Z M 102.519531 48.246094 "/>
</g>
</svg>
