<?xml version="1.0" standalone="no"?>
<!DOCTYPE svg PUBLIC "-//W3C//DTD SVG 20010904//EN"
 "http://www.w3.org/TR/2001/REC-SVG-20010904/DTD/svg10.dtd">
<svg version="1.0" xmlns="http://www.w3.org/2000/svg"
 width="200.000000pt" height="200.000000pt" viewBox="0 0 200.000000 200.000000"
 preserveAspectRatio="xMidYMid meet">
<metadata>
Created by potrace 1.10, written by Peter Selinger 2001-2011
</metadata>
<g transform="translate(0.000000,200.000000) scale(0.100000,-0.100000)"
fill="#000000" stroke="none">
<path d="M865 1320 c-111 -73 -145 -107 -103 -104 9 1 66 34 127 74 l110 72
117 -77 c105 -69 144 -84 144 -56 0 5 -17 20 -37 32 -21 13 -78 49 -126 81
-49 32 -94 58 -100 57 -7 0 -66 -36 -132 -79z"/>
<path d="M845 1198 c-3 -8 -5 -55 -3 -104 l3 -89 155 0 155 0 0 100 c0 82 -3
100 -15 100 -12 0 -16 -18 -20 -80 l-5 -80 -115 0 -115 0 -5 79 c-3 51 -10 81
-17 84 -7 2 -15 -3 -18 -10z"/>
<path d="M1644 989 c-3 -6 -2 -15 4 -21 13 -13 32 -2 32 18 0 16 -26 19 -36 3z"/>
<path d="M695 888 c0 -69 4 -103 12 -105 8 -3 13 17 15 63 2 43 8 69 16 72 9
3 12 -15 12 -67 0 -57 3 -71 15 -71 13 0 15 13 13 78 -3 77 -3 77 -30 77 -24
-1 -28 3 -28 27 0 16 -5 28 -12 28 -10 0 -13 -27 -13 -102z"/>
<path d="M1400 884 c0 -73 3 -105 11 -102 18 6 20 208 2 208 -10 0 -13 -24
-13 -106z"/>
<path d="M1580 961 c0 -11 -4 -21 -8 -23 -12 -5 1 -135 15 -149 13 -13 43 -5
43 11 0 5 -7 10 -15 10 -12 0 -15 13 -15 55 0 42 3 55 15 55 8 0 15 5 15 10 0
6 -7 10 -15 10 -8 0 -15 9 -15 20 0 11 -4 20 -10 20 -5 0 -10 -9 -10 -19z"/>
<path d="M21 927 c-14 -18 -6 -44 27 -79 14 -15 21 -31 17 -39 -6 -8 -13 -5
-26 12 -16 21 -18 22 -24 6 -14 -35 36 -62 63 -35 19 19 14 44 -13 76 -14 17
-25 35 -25 41 0 16 20 13 26 -4 9 -23 26 -18 22 8 -4 26 -48 36 -67 14z"/>
<path d="M117 933 c-11 -10 -8 -43 3 -43 6 0 10 7 10 15 0 8 7 15 15 15 24 0
17 -36 -11 -54 -20 -14 -25 -24 -22 -49 3 -30 6 -32 41 -33 l37 -1 0 63 c0 34
-3 69 -6 78 -6 16 -54 22 -67 9z m34 -126 c-16 -16 -26 20 -10 40 13 15 14 14
17 -7 2 -12 -1 -27 -7 -33z"/>
<path d="M223 860 c12 -48 24 -79 31 -77 6 2 16 27 22 56 7 28 15 63 18 76 5
18 2 25 -8 25 -10 0 -17 -17 -22 -57 -6 -47 -9 -53 -15 -33 -4 14 -7 40 -8 58
-1 24 -6 32 -19 32 -18 0 -18 -3 1 -80z"/>
<path d="M320 914 c-22 -56 -1 -134 35 -134 15 0 45 27 45 41 0 15 -27 10 -34
-7 -8 -22 -26 -7 -26 22 0 20 5 24 30 24 24 0 30 4 30 21 0 58 -61 84 -80 33z
m50 -14 c0 -11 -7 -20 -15 -20 -15 0 -21 21 -8 33 12 13 23 7 23 -13z"/>
<path d="M420 858 c0 -63 3 -78 15 -78 12 0 15 14 15 70 0 56 3 70 15 70 12 0
15 -14 15 -70 0 -56 3 -70 15 -70 12 0 15 15 15 71 0 52 3 70 13 66 8 -2 12
-25 12 -67 0 -43 4 -65 13 -68 10 -3 12 14 10 75 l-3 78 -67 1 -68 1 0 -79z"/>
<path d="M584 923 c3 -10 12 -47 21 -82 16 -64 16 -65 -6 -81 -14 -11 -18 -20
-11 -24 22 -13 51 13 58 52 3 20 12 63 19 95 10 46 10 57 0 57 -17 0 -25 -23
-25 -66 0 -21 -4 -33 -10 -29 -5 3 -10 19 -10 35 0 39 -9 60 -27 60 -9 0 -12
-6 -9 -17z"/>
<path d="M817 933 c-12 -11 -8 -128 5 -141 33 -33 68 2 68 68 0 27 -3 55 -6
64 -6 16 -54 22 -67 9z m48 -42 c11 -51 -13 -106 -29 -65 -13 33 -3 94 14 94
5 0 11 -13 15 -29z"/>
<path d="M920 859 c0 -64 3 -79 15 -79 12 0 15 15 15 71 0 52 3 70 13 66 8 -2
12 -26 12 -67 1 -90 23 -93 27 -4 2 43 8 69 16 72 9 3 12 -15 12 -67 0 -57 3
-71 15 -71 13 0 15 13 13 78 l-3 77 -67 1 -68 1 0 -78z"/>
<path d="M1096 924 c-12 -32 -6 -121 9 -134 19 -16 65 2 65 25 0 18 -27 20
-32 3 -6 -17 -28 0 -28 23 0 14 7 19 30 19 25 0 30 4 30 24 0 41 -11 56 -40
56 -16 0 -30 -7 -34 -16z m47 -24 c4 -15 0 -20 -14 -20 -18 0 -26 20 -12 33
11 12 21 8 26 -13z"/>
<path d="M1197 934 c-14 -14 -6 -46 20 -80 20 -27 23 -38 14 -47 -9 -9 -13 -7
-17 11 -8 27 -24 29 -24 3 0 -26 25 -44 50 -36 32 10 30 43 -6 90 -13 18 -21
35 -17 38 11 12 23 8 23 -8 0 -8 5 -15 11 -15 6 0 9 10 7 23 -2 15 -11 23 -28
25 -14 2 -29 0 -33 -4z"/>
<path d="M1291 918 c-10 -26 -2 -109 11 -125 14 -17 33 -16 52 3 19 19 22 114
4 132 -20 20 -58 14 -67 -10z m49 -52 c0 -55 -12 -80 -24 -50 -8 21 -8 89 1
97 16 17 23 3 23 -47z"/>
<path d="M1457 868 c3 -80 13 -99 43 -80 12 7 20 8 20 2 0 -5 5 -10 10 -10 6
0 10 33 10 80 0 63 -3 80 -15 80 -11 0 -15 -16 -17 -67 -4 -86 -22 -85 -26 2
-2 44 -7 65 -16 65 -9 0 -11 -19 -9 -72z"/>
<path d="M1650 859 c0 -58 3 -80 12 -77 17 6 17 158 1 158 -9 0 -13 -23 -13
-81z"/>
<path d="M1711 921 c-30 -56 5 -160 46 -135 25 16 38 68 27 112 -7 30 -14 38
-36 40 -18 2 -30 -3 -37 -17z m47 -56 c-2 -30 -7 -55 -13 -55 -5 0 -11 25 -13
55 -2 45 0 55 13 55 13 0 15 -10 13 -55z"/>
<path d="M1810 859 c0 -64 3 -79 15 -79 12 0 15 14 15 70 0 56 3 70 15 70 12
0 15 -14 15 -70 0 -56 3 -70 15 -70 13 0 15 13 13 78 l-3 77 -42 2 -43 2 0
-80z"/>
<path d="M1932 928 c-18 -18 -15 -32 18 -73 16 -20 27 -42 23 -48 -3 -5 -14 0
-24 14 -16 21 -18 22 -24 6 -15 -37 39 -63 65 -32 13 16 2 49 -32 97 -7 9 -9
21 -4 25 4 4 14 -1 22 -11 17 -24 28 -15 19 13 -7 23 -44 28 -63 9z"/>
<path d="M816 723 c-3 -6 -2 -14 1 -17 9 -9 361 -7 367 2 13 22 -22 27 -186
27 -125 0 -179 -3 -182 -12z"/>
</g>
</svg>
