<?xml version="1.0" standalone="no"?>
<!DOCTYPE svg PUBLIC "-//W3C//DTD SVG 20010904//EN"
 "http://www.w3.org/TR/2001/REC-SVG-20010904/DTD/svg10.dtd">
<svg version="1.0" xmlns="http://www.w3.org/2000/svg"
 width="199.000000pt" height="76.000000pt" viewBox="0 0 199.000000 76.000000"
 preserveAspectRatio="xMidYMid meet">
<metadata>
Created by potrace 1.10, written by Peter Selinger 2001-2011
</metadata>
<g transform="translate(0.000000,76.000000) scale(0.100000,-0.100000)"
fill="#4790e9" stroke="none">
<path d="M865 675 c-131 -87 -140 -94 -127 -107 10 -10 22 -4 160 85 l91 58
117 -76 c120 -76 129 -81 138 -67 7 12 -4 24 -54 56 -25 16 -77 51 -117 78
-39 26 -77 48 -85 47 -7 0 -62 -33 -123 -74z"/>
<path d="M805 670 c-3 -6 1 -7 9 -4 18 7 21 14 7 14 -6 0 -13 -4 -16 -10z"/>
<path d="M834 547 c-3 -8 -4 -54 -2 -103 l3 -89 155 0 155 0 0 100 c0 82 -3
100 -15 100 -12 0 -16 -17 -18 -80 l-3 -80 -114 3 c-72 2 -115 -1 -115 -7 0
-5 18 -12 40 -14 l40 -4 -42 1 -43 1 -3 93 c-2 74 -6 92 -18 92 -8 0 -17 -6
-20 -13z m23 -174 c-3 -10 -5 -4 -5 12 0 17 2 24 5 18 2 -7 2 -21 0 -30z m267
3 c-3 -9 -10 -13 -15 -10 -5 3 -3 11 4 19 15 16 19 13 11 -9z m-96 -3 c-10 -2
-28 -2 -40 0 -13 2 -5 4 17 4 22 1 32 -1 23 -4z m62 -3 c0 -5 -2 -10 -4 -10
-3 0 -8 5 -11 10 -3 6 -1 10 4 10 6 0 11 -4 11 -10z"/>
<path d="M1061 534 c0 -11 3 -14 6 -6 3 7 2 16 -1 19 -3 4 -6 -2 -5 -13z"/>
<path d="M1245 540 c-3 -6 1 -7 9 -4 18 7 21 14 7 14 -6 0 -13 -4 -16 -10z"/>
<path d="M161 346 c-9 -11 -9 -16 0 -22 7 -4 9 -3 5 4 -3 6 2 15 11 21 10 6
13 11 7 11 -6 0 -17 -6 -23 -14z"/>
<path d="M247 349 c7 -7 15 -10 18 -7 3 3 -2 9 -12 12 -14 6 -15 5 -6 -5z"/>
<path d="M115 340 c3 -5 8 -10 11 -10 2 0 4 5 4 10 0 6 -5 10 -11 10 -5 0 -7
-4 -4 -10z"/>
<path d="M300 340 c-9 -6 -10 -10 -3 -10 6 0 15 5 18 10 8 12 4 12 -15 0z"/>
<path d="M477 339 c7 -7 15 -10 18 -7 3 3 -2 9 -12 12 -14 6 -15 5 -6 -5z"/>
<path d="M1635 340 c-8 -14 3 -30 21 -30 8 0 14 9 14 20 0 21 -24 28 -35 10z"/>
<path d="M1748 343 c7 -3 16 -2 19 1 4 3 -2 6 -13 5 -11 0 -14 -3 -6 -6z"/>
<path d="M338 333 c7 -3 16 -2 19 1 4 3 -2 6 -13 5 -11 0 -14 -3 -6 -6z"/>
<path d="M686 238 c2 -118 21 -149 26 -42 2 43 8 69 16 72 9 3 12 -15 12 -67
0 -57 3 -71 15 -71 13 0 15 13 13 78 l-3 77 -28 0 c-26 -1 -28 2 -25 27 3 21
0 28 -12 28 -13 0 -15 -14 -14 -102z"/>
<path d="M1157 327 c-3 -7 3 -13 14 -13 13 0 15 3 7 13 -6 7 -12 13 -13 13 -2
0 -5 -6 -8 -13z"/>
<path d="M1270 331 c0 -6 4 -13 10 -16 6 -3 7 1 4 9 -7 18 -14 21 -14 7z"/>
<path d="M1390 234 c0 -69 4 -104 11 -102 16 5 18 208 2 208 -10 0 -13 -28
-13 -106z"/>
<path d="M1578 334 c-5 -4 -8 -16 -8 -26 0 -10 -4 -18 -8 -18 -13 0 -1 -134
13 -149 14 -15 45 -9 45 9 0 5 -7 10 -15 10 -12 0 -15 13 -15 55 0 42 3 55 15
55 8 0 15 5 15 10 0 6 -6 10 -14 10 -8 0 -16 12 -18 26 -2 14 -6 22 -10 18z"/>
<path d="M1698 333 c7 -3 16 -2 19 1 4 3 -2 6 -13 5 -11 0 -14 -3 -6 -6z"/>
<path d="M590 316 c0 -2 7 -7 16 -10 8 -3 12 -2 9 4 -6 10 -25 14 -25 6z"/>
<path d="M17 284 c-15 -15 -6 -54 19 -83 14 -17 23 -35 19 -41 -10 -16 -22
-12 -28 11 -3 12 -10 18 -15 15 -16 -9 -2 -45 20 -51 22 -8 48 10 48 33 0 8
-11 30 -25 48 -14 18 -25 37 -25 43 0 16 17 13 24 -4 9 -23 28 -18 24 8 -2 15
-11 23 -28 25 -14 2 -29 0 -33 -4z"/>
<path d="M107 284 c-11 -11 -8 -44 3 -44 6 0 10 7 10 15 0 8 7 15 15 15 24 0
18 -30 -11 -52 -19 -16 -24 -28 -22 -52 3 -29 6 -31 41 -32 l38 -1 -3 76 -3
76 -30 3 c-17 2 -34 0 -38 -4z m43 -104 c0 -22 -4 -28 -15 -24 -18 7 -19 26
-3 42 17 17 18 16 18 -18z"/>
<path d="M213 210 c11 -45 25 -80 31 -80 7 0 18 27 24 65 7 35 15 71 18 80 4
9 0 15 -9 15 -11 0 -18 -16 -23 -57 -6 -47 -9 -53 -15 -33 -4 14 -7 40 -8 58
-1 24 -6 32 -19 32 -18 0 -18 -3 1 -80z"/>
<path d="M309 263 c-13 -35 -5 -101 14 -120 18 -18 52 -10 61 14 10 26 -11 38
-24 14 -14 -26 -30 -18 -30 15 0 20 5 24 30 24 24 0 30 4 30 21 0 59 -61 83
-81 32z m51 -13 c0 -11 -7 -20 -15 -20 -8 0 -15 9 -15 20 0 11 7 20 15 20 8 0
15 -9 15 -20z"/>
<path d="M410 210 c0 -62 3 -77 15 -77 12 0 15 15 15 69 0 54 3 68 15 68 12 0
15 -14 15 -70 0 -56 3 -70 15 -70 12 0 15 14 15 70 0 52 3 70 14 70 10 0 13
-17 11 -70 -2 -54 1 -70 12 -70 11 0 13 16 11 78 l-3 77 -67 1 -68 0 0 -76z"/>
<path d="M592 208 l20 -82 -23 -16 c-14 -11 -18 -20 -11 -24 14 -9 52 11 53
27 0 7 8 49 18 95 16 75 17 83 2 80 -12 -2 -17 -19 -21 -63 -6 -63 -7 -61 -26
35 -3 17 -11 30 -18 30 -10 0 -9 -19 6 -82z"/>
<path d="M807 283 c-12 -11 -8 -128 5 -141 18 -18 46 -14 58 7 11 21 14 100 4
125 -6 16 -54 22 -67 9z m44 -30 c5 -66 -3 -115 -17 -101 -7 8 -12 106 -6 113
11 10 22 4 23 -12z"/>
<path d="M908 209 c3 -60 7 -79 18 -79 11 0 14 16 14 71 0 52 3 70 13 66 8 -2
12 -25 12 -67 0 -42 4 -65 13 -67 9 -4 12 14 12 66 0 56 3 71 15 71 12 0 15
-14 15 -70 0 -56 3 -70 15 -70 13 0 15 13 13 78 l-3 77 -70 1 -70 2 3 -79z"/>
<path d="M1093 284 c-19 -8 -17 -128 2 -144 17 -14 51 -5 59 17 9 23 -4 31
-18 11 -15 -20 -36 -6 -36 24 0 13 8 18 31 18 29 0 30 2 27 38 -3 31 -7 37
-28 39 -14 1 -31 -1 -37 -3z m41 -30 c9 -23 8 -24 -14 -24 -19 0 -27 20 -13
33 11 11 20 8 27 -9z"/>
<path d="M1187 284 c-14 -14 -6 -47 18 -76 27 -32 30 -43 14 -53 -6 -4 -13 2
-16 14 -7 29 -23 27 -23 -3 0 -26 23 -40 51 -31 27 9 24 51 -6 87 -29 34 -32
48 -10 48 8 0 15 -7 15 -15 0 -8 5 -15 11 -15 6 0 9 10 7 23 -2 15 -11 23 -28
25 -14 2 -29 0 -33 -4z"/>
<path d="M1281 268 c-4 -13 -6 -43 -5 -66 4 -66 34 -91 68 -56 19 19 22 114 4
132 -20 20 -58 14 -67 -10z m47 -53 c-4 -71 -22 -71 -26 0 -2 45 0 55 13 55
13 0 15 -10 13 -55z"/>
<path d="M1447 221 c0 -39 4 -74 7 -79 3 -6 22 -10 41 -9 l35 1 0 78 c0 63 -3
78 -15 78 -12 0 -15 -14 -15 -65 0 -53 -3 -65 -16 -65 -13 0 -15 11 -12 65 2
53 0 65 -12 65 -12 0 -15 -14 -13 -69z"/>
<path d="M1640 209 c0 -106 21 -103 23 4 2 56 -1 77 -10 77 -9 0 -13 -23 -13
-81z"/>
<path d="M1700 271 c-25 -47 -1 -141 35 -141 36 0 57 78 35 134 -12 32 -54 36
-70 7z m48 -56 c-4 -71 -22 -71 -26 0 -2 45 0 55 13 55 13 0 15 -10 13 -55z"/>
<path d="M1800 209 c0 -62 3 -79 15 -79 11 0 15 16 17 67 2 42 8 68 16 71 9 3
12 -17 13 -75 0 -43 3 -72 6 -65 2 6 9 9 14 6 6 -3 9 24 7 73 l-3 78 -42 2
-43 2 0 -80z"/>
<path d="M1921 276 c-14 -17 -5 -43 27 -79 19 -20 23 -30 15 -38 -8 -8 -14 -5
-22 10 -15 27 -33 27 -29 0 4 -30 33 -47 56 -33 26 17 25 36 -3 78 -27 40 -32
60 -12 53 6 -2 11 -10 10 -16 -2 -6 4 -11 12 -11 16 0 19 9 9 34 -8 20 -47 21
-63 2z"/>
<path d="M804 81 c-2 -2 -4 -10 -4 -18 0 -11 35 -13 185 -13 102 1 187 5 189
9 13 21 -24 26 -187 26 -98 0 -181 -2 -183 -4z"/>
</g>
</svg>
