<?xml version="1.0" standalone="no"?>
<!DOCTYPE svg PUBLIC "-//W3C//DTD SVG 20010904//EN"
 "http://www.w3.org/TR/2001/REC-SVG-20010904/DTD/svg10.dtd">
<svg version="1.0" xmlns="http://www.w3.org/2000/svg"
 width="199.000000pt" height="76.000000pt" viewBox="0 0 199.000000 76.000000"
 preserveAspectRatio="xMidYMid meet">
<metadata>
Created by potrace 1.10, written by Peter Selinger 2001-2011
</metadata>
<g transform="translate(0.000000,76.000000) scale(0.100000,-0.100000)"
fill="#000000" stroke="none">
<path d="M855 670 c-66 -44 -120 -84 -120 -91 0 -24 22 -19 71 14 27 19 79 53
116 76 l67 42 117 -76 c106 -69 152 -87 138 -53 -3 7 -26 26 -52 42 -26 16
-79 51 -119 78 -40 26 -78 48 -85 47 -7 0 -67 -36 -133 -79z"/>
<path d="M834 547 c-3 -8 -4 -54 -2 -103 l3 -89 155 0 155 0 0 100 c0 82 -3
100 -15 100 -12 0 -16 -17 -18 -80 l-3 -80 -119 0 -120 0 0 83 c0 67 -3 82
-15 82 -9 0 -18 -6 -21 -13z"/>
<path d="M1632 333 c5 -26 38 -29 38 -4 0 15 -6 21 -21 21 -14 0 -19 -5 -17
-17z"/>
<path d="M686 238 c3 -118 21 -148 26 -42 2 43 8 69 16 72 9 3 12 -15 12 -67
0 -57 3 -71 15 -71 13 0 15 13 13 78 l-3 77 -28 0 c-26 -1 -28 2 -25 27 3 21
0 28 -12 28 -14 0 -16 -13 -14 -102z"/>
<path d="M1390 234 c0 -141 20 -138 24 4 2 79 -1 102 -11 102 -10 0 -13 -25
-13 -106z"/>
<path d="M1570 315 c0 -14 -4 -25 -8 -25 -13 0 -1 -134 13 -149 14 -15 45 -9
45 9 0 5 -7 10 -15 10 -12 0 -15 13 -15 55 0 42 3 55 15 55 8 0 15 5 15 10 0
6 -7 10 -15 10 -9 0 -15 9 -15 25 0 14 -4 25 -10 25 -5 0 -10 -11 -10 -25z"/>
<path d="M17 284 c-15 -15 -6 -54 19 -84 19 -22 24 -34 16 -42 -7 -7 -14 -3
-22 12 -8 15 -15 19 -22 12 -14 -14 8 -52 30 -52 22 0 42 19 42 39 0 8 -11 29
-25 47 -14 18 -25 37 -25 43 0 16 17 13 24 -4 9 -23 28 -18 24 8 -2 15 -11 23
-28 25 -14 2 -29 0 -33 -4z"/>
<path d="M107 284 c-11 -11 -8 -44 3 -44 6 0 10 7 10 15 0 8 7 15 15 15 24 0
18 -30 -11 -52 -19 -16 -24 -28 -22 -52 3 -29 6 -31 41 -32 l38 -1 -3 76 -3
76 -30 3 c-17 2 -34 0 -38 -4z m43 -99 c0 -16 -6 -25 -15 -25 -18 0 -20 21 -3
38 17 17 18 16 18 -13z"/>
<path d="M206 238 c7 -29 15 -65 18 -80 11 -49 32 -32 44 37 7 35 15 71 18 80
4 9 0 15 -9 15 -11 0 -18 -16 -23 -57 -6 -47 -9 -53 -15 -33 -4 14 -7 40 -8
58 -1 24 -6 32 -19 32 -18 0 -18 -4 -6 -52z"/>
<path d="M309 263 c-6 -16 -8 -45 -6 -66 8 -62 39 -84 71 -51 20 20 20 34 1
34 -8 0 -15 -4 -15 -10 0 -5 -7 -10 -15 -10 -9 0 -15 9 -15 25 0 21 5 25 30
25 24 0 30 4 30 21 0 59 -61 83 -81 32z m51 -13 c0 -11 -7 -20 -15 -20 -8 0
-15 9 -15 20 0 11 7 20 15 20 8 0 15 -9 15 -20z"/>
<path d="M410 208 c0 -63 3 -78 15 -78 12 0 15 14 15 70 0 56 3 70 15 70 12 0
15 -14 15 -70 0 -56 3 -70 15 -70 12 0 15 15 15 71 0 52 3 70 13 66 8 -2 12
-26 12 -67 1 -42 5 -65 13 -68 10 -3 12 15 10 75 l-3 78 -67 1 -68 0 0 -78z"/>
<path d="M574 273 c3 -10 12 -47 21 -82 l17 -65 -24 -17 c-21 -16 -21 -18 -5
-25 29 -11 43 14 64 114 18 83 18 93 4 90 -12 -2 -17 -19 -21 -58 -5 -57 -12
-51 -25 23 -4 24 -11 37 -21 37 -10 0 -14 -6 -10 -17z"/>
<path d="M807 283 c-12 -11 -8 -128 5 -141 18 -18 46 -14 58 7 11 21 14 100 4
125 -6 16 -54 22 -67 9z m46 -34 c6 -22 1 -79 -8 -88 -11 -11 -24 24 -20 54 2
17 4 36 4 43 1 20 18 14 24 -9z"/>
<path d="M910 209 c0 -64 3 -79 15 -79 12 0 15 15 15 71 0 52 3 70 13 66 8 -2
12 -26 12 -67 1 -41 5 -65 13 -68 9 -3 12 16 12 67 0 56 3 71 15 71 12 0 15
-14 15 -70 0 -56 3 -70 15 -70 13 0 15 13 13 78 l-3 77 -67 1 -68 1 0 -78z"/>
<path d="M1087 284 c-12 -12 -8 -129 5 -142 18 -18 46 -14 58 9 14 25 6 36
-14 20 -19 -16 -36 -6 -36 20 0 15 7 19 31 19 29 0 30 2 27 38 -3 33 -6 37
-33 40 -17 2 -34 0 -38 -4z m47 -30 c9 -23 8 -24 -14 -24 -19 0 -27 20 -13 33
11 11 20 8 27 -9z"/>
<path d="M1187 284 c-14 -14 -6 -47 18 -76 27 -32 30 -43 14 -53 -6 -4 -13 2
-16 14 -7 29 -23 27 -23 -3 0 -26 23 -40 51 -31 27 9 24 51 -6 87 -29 34 -32
48 -10 48 8 0 15 -7 15 -15 0 -8 5 -15 11 -15 6 0 9 10 7 23 -2 15 -11 23 -28
25 -14 2 -29 0 -33 -4z"/>
<path d="M1284 279 c-11 -18 -5 -120 7 -135 16 -20 47 -17 59 5 14 27 13 114
-2 129 -15 15 -55 16 -64 1z m46 -64 c0 -42 -3 -55 -15 -55 -11 0 -15 12 -15
48 0 27 3 52 7 55 16 17 23 3 23 -48z"/>
<path d="M1447 221 c0 -39 4 -74 7 -79 3 -6 22 -10 41 -9 l35 1 0 78 c0 63 -3
78 -15 78 -12 0 -15 -14 -15 -65 0 -53 -3 -65 -16 -65 -13 0 -15 11 -12 65 2
53 0 65 -12 65 -12 0 -15 -14 -13 -69z"/>
<path d="M1640 209 c0 -56 3 -80 11 -77 17 6 18 158 2 158 -9 0 -13 -23 -13
-81z"/>
<path d="M1700 271 c-11 -22 -13 -74 -4 -108 8 -29 42 -40 61 -20 19 19 27 85
14 120 -13 33 -55 38 -71 8z m48 -56 c-4 -71 -22 -71 -26 0 -2 45 0 55 13 55
13 0 15 -10 13 -55z"/>
<path d="M1800 209 c0 -62 3 -79 15 -79 11 0 15 16 17 67 2 42 8 68 16 71 9 3
12 -15 12 -67 0 -57 3 -71 15 -71 13 0 15 13 13 78 l-3 77 -42 2 -43 2 0 -80z"/>
<path d="M1916 275 c-7 -20 7 -56 33 -79 11 -11 21 -23 21 -28 0 -15 -29 -8
-39 10 -9 16 -10 16 -16 -1 -15 -37 39 -63 65 -32 13 16 2 49 -32 97 -7 9 -9
21 -4 25 4 4 14 -1 22 -11 17 -24 28 -15 19 13 -8 25 -60 29 -69 6z"/>
<path d="M804 81 c-2 -2 -4 -10 -4 -18 0 -11 35 -13 188 -11 144 2 187 6 187
16 0 10 -42 13 -183 15 -101 1 -186 0 -188 -2z"/>
</g>
</svg>
