<?xml version="1.0" standalone="no"?>
<!DOCTYPE svg PUBLIC "-//W3C//DTD SVG 20010904//EN"
 "http://www.w3.org/TR/2001/REC-SVG-20010904/DTD/svg10.dtd">
<svg version="1.0" xmlns="http://www.w3.org/2000/svg"
 width="199.000000pt" height="76.000000pt" viewBox="0 0 199.000000 76.000000"
 preserveAspectRatio="xMidYMid meet">
<metadata>
Created by potrace 1.10, written by Peter Selinger 2001-2011
</metadata>
<g transform="translate(0.000000,76.000000) scale(0.100000,-0.100000)"
fill="#000000" stroke="none">
<path d="M0 469 c0 -203 3 -288 11 -284 6 4 13 -2 16 -14 6 -23 18 -27 28 -11
4 6 -5 24 -20 42 -36 43 -32 83 10 83 23 0 31 -5 33 -22 4 -26 -15 -31 -24 -8
-7 17 -24 20 -24 4 0 -6 11 -25 25 -43 14 -18 25 -40 25 -48 0 -39 -63 -48
-73 -10 -3 9 -5 -22 -6 -70 l-1 -88 995 0 995 0 0 75 c0 73 -1 75 -20 63 -25
-16 -54 -1 -58 31 -4 27 14 27 29 0 8 -15 14 -18 22 -10 8 8 4 18 -15 38 -32
36 -41 62 -27 79 14 17 56 18 62 2 3 -7 5 98 6 234 l1 248 -995 0 -995 0 0
-291z m1073 233 c40 -27 92 -62 117 -78 50 -32 61 -44 54 -56 -9 -14 -18 -9
-138 67 l-117 76 -91 -58 c-138 -89 -150 -95 -160 -85 -6 6 -5 14 4 22 28 26
234 159 246 159 8 1 46 -21 85 -47z m-243 -26 c0 -2 -7 -7 -16 -10 -8 -3 -12
-2 -9 4 6 10 25 14 25 6z m42 -208 l3 -93 43 -1 42 -1 -40 4 c-22 2 -40 9 -40
14 0 6 43 9 115 7 l114 -3 3 80 c2 63 6 80 18 80 12 0 15 -18 15 -100 l0 -100
-155 0 -155 0 -3 89 c-3 99 0 116 22 116 12 0 16 -18 18 -92z m195 60 c-3 -8
-6 -5 -6 6 -1 11 2 17 5 13 3 -3 4 -12 1 -19z m203 18 c0 -2 -7 -7 -16 -10 -8
-3 -12 -2 -9 4 6 10 25 14 25 6z m-1093 -197 c-9 -6 -14 -15 -11 -21 4 -7 2
-8 -5 -4 -14 9 3 36 23 36 6 0 3 -5 -7 -11z m88 -7 c-3 -3 -11 0 -18 7 -9 10
-8 11 6 5 10 -3 15 -9 12 -12z m-135 -2 c0 -5 -2 -10 -4 -10 -3 0 -8 5 -11 10
-3 6 -1 10 4 10 6 0 11 -4 11 -10z m185 0 c-3 -5 -12 -10 -18 -10 -7 0 -6 4 3
10 19 12 23 12 15 0z m180 -8 c-3 -3 -11 0 -18 7 -9 10 -8 11 6 5 10 -3 15 -9
12 -12z m1175 -2 c0 -11 -6 -20 -14 -20 -18 0 -29 16 -21 30 11 18 35 11 35
-10z m97 14 c-3 -3 -12 -4 -19 -1 -8 3 -5 6 6 6 11 1 17 -2 13 -5z m-1410 -10
c-3 -3 -12 -4 -19 -1 -8 3 -5 6 6 6 11 1 17 -2 13 -5z m355 -22 c-3 -25 -1
-28 25 -27 l28 0 3 -77 c2 -65 0 -78 -13 -78 -12 0 -15 14 -15 71 0 52 -3 70
-12 67 -8 -3 -14 -29 -16 -72 -5 -107 -24 -76 -26 42 -1 88 1 102 14 102 12 0
15 -7 12 -28z m466 15 c8 -10 6 -13 -7 -13 -11 0 -17 6 -14 13 3 7 6 13 8 13
1 0 7 -6 13 -13z m106 -3 c3 -8 2 -12 -4 -9 -6 3 -10 10 -10 16 0 14 7 11 14
-7z m129 -86 c-3 -142 -23 -145 -23 -4 0 78 3 106 13 106 9 0 11 -26 10 -102z
m193 52 c8 0 14 -4 14 -10 0 -5 -7 -10 -15 -10 -12 0 -15 -13 -15 -55 0 -42 3
-55 15 -55 8 0 15 -5 15 -10 0 -18 -31 -24 -45 -9 -14 15 -26 149 -13 149 4 0
8 8 8 18 0 30 15 36 18 8 2 -14 10 -26 18 -26z m111 44 c-3 -3 -12 -4 -19 -1
-8 3 -5 6 6 6 11 1 17 -2 13 -5z m-1102 -24 c3 -6 -1 -7 -9 -4 -18 7 -21 14
-7 14 6 0 13 -4 16 -10z m-437 -101 l3 -76 -38 1 c-35 1 -38 3 -41 32 -2 24 3
36 22 52 29 22 35 52 11 52 -8 0 -15 -7 -15 -15 0 -8 -4 -15 -10 -15 -11 0
-14 33 -3 44 4 4 21 6 38 4 l30 -3 3 -76z m53 49 c1 -18 4 -44 8 -58 6 -20 9
-14 15 33 5 41 12 57 23 57 9 0 13 -6 9 -15 -3 -9 -11 -45 -18 -80 -6 -38 -17
-65 -24 -65 -6 0 -20 35 -31 80 -19 77 -19 80 -1 80 13 0 18 -8 19 -32z m149
13 c5 -11 10 -29 10 -40 0 -17 -6 -21 -30 -21 -25 0 -30 -4 -30 -24 0 -33 16
-41 30 -15 13 24 34 12 24 -14 -9 -24 -43 -32 -61 -14 -19 19 -27 85 -14 120
13 33 55 38 71 8z m168 -63 c2 -62 0 -78 -11 -78 -11 0 -14 16 -12 70 2 53 -1
70 -11 70 -11 0 -14 -18 -14 -70 0 -56 -3 -70 -15 -70 -12 0 -15 14 -15 70 0
56 -3 70 -15 70 -12 0 -15 -14 -15 -68 0 -54 -3 -69 -15 -69 -12 0 -15 15 -15
77 l0 76 68 0 67 -1 3 -77z m56 52 c19 -96 20 -98 26 -35 4 44 9 61 21 63 15
3 14 -5 -2 -80 -10 -46 -18 -88 -18 -95 -1 -16 -39 -36 -53 -27 -7 4 -3 13 11
24 l23 16 -20 82 c-15 63 -16 82 -6 82 7 0 15 -13 18 -30z m270 14 c10 -25 7
-104 -4 -125 -12 -21 -40 -25 -58 -7 -13 13 -17 130 -5 141 13 13 61 7 67 -9z
m174 -66 c2 -65 0 -78 -13 -78 -12 0 -15 14 -15 70 0 56 -3 70 -15 70 -12 0
-15 -15 -15 -71 0 -52 -3 -70 -12 -66 -9 2 -13 25 -13 67 0 42 -4 65 -12 67
-10 4 -13 -14 -13 -66 0 -55 -3 -71 -14 -71 -11 0 -15 19 -18 79 l-3 79 70 -2
70 -1 3 -77z m110 40 c3 -36 2 -38 -27 -38 -23 0 -31 -5 -31 -18 0 -30 21 -44
36 -24 7 9 15 14 18 11 11 -11 -5 -38 -25 -44 -35 -11 -49 12 -49 80 0 67 6
75 50 72 21 -2 25 -8 28 -39z m90 15 c2 -13 -1 -23 -7 -23 -6 0 -11 7 -11 15
0 8 -7 15 -15 15 -22 0 -19 -14 10 -48 30 -36 33 -78 6 -87 -28 -9 -51 5 -51
31 0 30 16 32 23 3 3 -12 10 -18 16 -14 16 10 13 21 -14 53 -40 47 -33 85 15
80 17 -2 26 -10 28 -25z m100 15 c18 -18 15 -113 -4 -132 -34 -35 -64 -10 -68
56 -4 59 8 88 37 88 13 0 28 -5 35 -12z m124 -53 c-3 -54 -1 -65 12 -65 13 0
16 12 16 65 0 51 3 65 15 65 12 0 15 -15 15 -78 l0 -78 -35 -1 c-19 -1 -38 3
-41 9 -3 5 -7 40 -7 79 -2 55 1 69 13 69 12 0 14 -12 12 -65z m191 -12 c-2
-107 -23 -110 -23 -4 0 58 4 81 13 81 9 0 12 -21 10 -77z m107 51 c22 -56 1
-134 -35 -134 -36 0 -60 94 -35 141 16 29 58 25 70 -7z m118 -57 c2 -49 -1
-76 -7 -73 -5 3 -12 0 -14 -6 -3 -7 -6 22 -6 65 -1 58 -4 78 -13 75 -8 -3 -14
-29 -16 -71 -2 -51 -6 -67 -17 -67 -12 0 -15 17 -15 79 l0 80 43 -2 42 -2 3
-78z m-716 -132 c4 -5 5 -12 2 -16 -2 -4 -87 -8 -189 -9 -150 0 -185 2 -185
13 0 8 2 16 4 18 9 9 361 4 368 -6z"/>
<path d="M852 385 c0 -16 2 -22 5 -12 2 9 2 23 0 30 -3 6 -5 -1 -5 -18z"/>
<path d="M1113 385 c-7 -8 -9 -16 -4 -19 5 -3 12 1 15 10 8 22 4 25 -11 9z"/>
<path d="M988 373 c12 -2 30 -2 40 0 9 3 -1 5 -23 4 -22 0 -30 -2 -17 -4z"/>
<path d="M1075 370 c3 -5 8 -10 11 -10 2 0 4 5 4 10 0 6 -5 10 -11 10 -5 0 -7
-4 -4 -10z"/>
<path d="M132 198 c-16 -16 -15 -35 3 -42 11 -4 15 2 15 24 0 34 -1 35 -18 18z"/>
<path d="M330 250 c0 -11 7 -20 15 -20 8 0 15 9 15 20 0 11 -7 20 -15 20 -8 0
-15 -9 -15 -20z"/>
<path d="M828 265 c-6 -7 -1 -105 6 -113 14 -14 22 35 17 101 -1 16 -12 22
-23 12z"/>
<path d="M1107 263 c-14 -13 -6 -33 13 -33 22 0 23 1 14 24 -7 17 -16 20 -27
9z"/>
<path d="M1302 215 c4 -71 22 -71 26 0 2 45 0 55 -13 55 -13 0 -15 -10 -13
-55z"/>
<path d="M1722 215 c4 -71 22 -71 26 0 2 45 0 55 -13 55 -13 0 -15 -10 -13
-55z"/>
<path d="M1940 261 c0 -5 11 -27 25 -47 l25 -37 0 32 c0 21 -5 31 -15 31 -8 0
-14 5 -12 11 1 6 -4 14 -10 16 -7 3 -13 0 -13 -6z"/>
</g>
</svg>
